<?xml version="1.0" encoding="UTF-8"?><svg width="168" height="40" viewBox="0 0 168 40" fill="none" xmlns="http://www.w3.org/2000/svg">
  <path d="M24.9 11.9L15 30H10L19.9 11.9H24.9Z" fill="#FF4D00"/>
  <path d="M34.8 11.9L24.9 30H19.9L29.8 11.9H34.8Z" fill="#FF4D00"/>
  <path d="M44.7 11.9L34.8 30H29.8L39.7 11.9H44.7Z" fill="#FF4D00"/>
  <path d="M53.6 30H48.6L58.5 11.9H63.5L53.6 30Z" fill="#0F56B3"/>
  <path d="M58.5 30H53.5L63.4 11.9H68.4L58.5 30Z" fill="#0F56B3"/>
  <path d="M76.8 18.4V21.1H70.5V18.4H76.8ZM71.5 13.7V27.9H68.3V13.7H71.5ZM79 13.7V27.9H75.9V13.7H79Z" fill="#191919"/>
  <path d="M82 21.2C82 20.2 82.2 19.3 82.6 18.4C83 17.6 83.6 16.9 84.4 16.4C85.2 15.9 86.1 15.6 87.1 15.6C87.9 15.6 88.6 15.8 89.3 16.1C90 16.4 90.5 16.8 90.9 17.3V15.8H94V27.9H90.9V26.4C90.5 26.9 90 27.3 89.3 27.6C88.6 27.9 87.9 28.1 87 28.1C86.1 28.1 85.2 27.8 84.4 27.3C83.6 26.8 83 26.1 82.6 25.2C82.2 24.4 82 23.4 82 22.4V21.2ZM90.9 22.4V21.2C90.9 20.4 90.7 19.8 90.2 19.3C89.8 18.8 89.2 18.6 88.5 18.6C87.8 18.6 87.2 18.8 86.7 19.3C86.3 19.8 86.1 20.4 86.1 21.2V22.4C86.1 23.2 86.3 23.8 86.7 24.3C87.2 24.8 87.8 25 88.5 25C89.2 25 89.8 24.8 90.2 24.3C90.7 23.8 90.9 23.2 90.9 22.4Z" fill="#191919"/>
  <path d="M96.2 21.2C96.2 20.2 96.4 19.3 96.8 18.5C97.2 17.6 97.8 16.9 98.6 16.4C99.4 15.9 100.3 15.6 101.3 15.6C102.1 15.6 102.9 15.8 103.5 16.1C104.2 16.4 104.7 16.9 105.1 17.5V11.4H108.3V27.9H105.1V26.2C104.8 26.8 104.3 27.3 103.7 27.6C103 28 102.3 28.1 101.4 28.1C100.4 28.1 99.5 27.8 98.7 27.3C97.8 26.8 97.2 26.1 96.8 25.2C96.4 24.3 96.2 23.4 96.2 22.3V21.2ZM105.1 22.4V21.2C105.1 20.4 104.9 19.8 104.4 19.3C104 18.8 103.4 18.6 102.7 18.6C102 18.6 101.4 18.8 100.9 19.3C100.5 19.8 100.3 20.4 100.3 21.2V22.4C100.3 23.2 100.5 23.8 100.9 24.3C101.4 24.8 102 25 102.7 25C103.4 25 104 24.8 104.4 24.3C104.9 23.8 105.1 23.2 105.1 22.4Z" fill="#191919"/>
  <path d="M110.1 21.2C110.1 20.2 110.3 19.3 110.7 18.4C111.1 17.6 111.7 16.9 112.5 16.4C113.3 15.9 114.2 15.6 115.2 15.6C116 15.6 116.7 15.8 117.4 16.1C118.1 16.4 118.6 16.8 119 17.3V15.8H122.1V27.9H119V26.4C118.6 26.9 118.1 27.3 117.4 27.6C116.7 27.9 116 28.1 115.1 28.1C114.2 28.1 113.3 27.8 112.5 27.3C111.7 26.8 111.1 26.1 110.7 25.2C110.3 24.4 110.1 23.4 110.1 22.4V21.2ZM119 22.4V21.2C119 20.4 118.8 19.8 118.3 19.3C117.9 18.8 117.3 18.6 116.6 18.6C115.9 18.6 115.3 18.8 114.8 19.3C114.4 19.8 114.2 20.4 114.2 21.2V22.4C114.2 23.2 114.4 23.8 114.8 24.3C115.3 24.8 115.9 25 116.6 25C117.3 25 117.9 24.8 118.3 24.3C118.8 23.8 119 23.2 119 22.4Z" fill="#191919"/>
  <path d="M132.9 15.6C133.8 15.6 134.6 15.8 135.3 16.2C136 16.6 136.5 17.2 136.9 17.9C137.3 18.7 137.5 19.5 137.5 20.5V27.9H134.4V21C134.4 20.2 134.2 19.6 133.8 19.2C133.4 18.7 132.9 18.5 132.2 18.5C131.5 18.5 130.9 18.7 130.5 19.2C130.1 19.6 129.9 20.2 129.9 21V27.9H126.8V15.8H129.9V17.2C130.3 16.8 130.8 16.4 131.4 16.1C132 15.7 132.7 15.6 132.9 15.6Z" fill="#191919"/>
  <path d="M139.3 21.8C139.3 20.3 139.6 19 140.3 17.9C140.9 16.8 141.8 16 143 15.4C144.1 14.8 145.4 14.5 146.9 14.5C148.9 14.5 150.6 15.1 151.9 16.2C153.2 17.3 154 18.9 154.3 20.8H149.9C149.7 20.1 149.4 19.5 148.9 19.1C148.4 18.7 147.7 18.5 146.9 18.5C145.9 18.5 145.1 18.8 144.5 19.5C143.9 20.2 143.6 21.1 143.6 22.4C143.6 23.7 143.9 24.7 144.5 25.3C145.1 26 145.9 26.3 146.9 26.3C148.4 26.3 149.4 25.6 149.9 24.3H154.3C154 26 153.2 27.5 151.9 28.6C150.6 29.7 148.9 30.3 146.9 30.3C145.4 30.3 144.1 30 143 29.4C141.8 28.8 140.9 28 140.3 26.9C139.6 25.8 139.3 24.5 139.3 23V21.8Z" fill="#191919"/>
  <path d="M165 27.9H161.9V26.4C161.5 26.9 161 27.3 160.3 27.6C159.6 27.9 158.9 28.1 158.1 28.1C157.1 28.1 156.2 27.9 155.4 27.4C154.6 26.9 154 26.2 153.5 25.3C153.1 24.4 152.9 23.4 152.9 22.3V15.8H156V21.8C156 22.6 156.2 23.2 156.6 23.7C157 24.2 157.6 24.4 158.3 24.4C159 24.4 159.6 24.2 160 23.7C160.4 23.2 160.6 22.6 160.6 21.8V15.8H163.7V27.9H165Z" fill="#191919"/>
</svg>