<svg width="2290" height="503" viewBox="0 0 2290 503" fill="none" xmlns="http://www.w3.org/2000/svg">
<g clip-path="url(#clip0_3273_9062)">
<path d="M62.5 500H187.5V312.5H312.5V500H437.5V250H500L250 0L0 250H62.5" fill="#F26755"/>
<rect x="180" y="450" width="156" height="50" fill="#F26755"/>
</g>
<path d="M725.92 500L706.08 452H602.08L582.24 500H529.12L628.96 276H680.16L780.32 500H725.92ZM618.72 412.64H689.76L654.24 326.88L618.72 412.64ZM954.558 500H897.918L860.158 447.2L821.118 500H766.718L832.958 413.28L768.958 327.84H824.958L861.438 378.08L898.878 327.84H951.998L887.998 412L954.558 500ZM1003.75 303.84C985.19 303.84 972.71 291.68 972.71 276C972.71 260.32 985.19 248.16 1003.75 248.16C1022.31 248.16 1034.79 259.68 1034.79 275.04C1034.79 291.68 1022.31 303.84 1003.75 303.84ZM978.79 500V327.84H1028.71V500H978.79ZM1295.52 325.28C1336.48 325.28 1365.92 348.96 1365.92 401.44V500H1316V409.12C1316 381.28 1303.52 368.48 1283.36 368.48C1260.96 368.48 1245.28 382.88 1245.28 413.6V500H1195.36V409.12C1195.36 381.28 1183.52 368.48 1162.72 368.48C1140.64 368.48 1124.96 382.88 1124.96 413.6V500H1075.04V327.84H1122.72V347.68C1135.52 332.96 1154.72 325.28 1176.8 325.28C1200.8 325.28 1221.28 334.56 1233.44 353.44C1247.2 335.84 1269.6 325.28 1295.52 325.28ZM1494.46 502.56C1439.74 502.56 1399.74 465.76 1399.74 413.92C1399.74 362.08 1439.74 325.28 1494.46 325.28C1549.18 325.28 1588.86 362.08 1588.86 413.92C1588.86 465.76 1549.18 502.56 1494.46 502.56ZM1494.46 461.6C1519.42 461.6 1538.3 443.68 1538.3 413.92C1538.3 384.16 1519.42 366.24 1494.46 366.24C1469.5 366.24 1450.3 384.16 1450.3 413.92C1450.3 443.68 1469.5 461.6 1494.46 461.6ZM1790.23 383.52C1815.19 391.52 1831.19 410.72 1831.19 438.88C1831.19 477.6 1800.47 500 1741.59 500H1625.75V276H1735.19C1791.19 276 1819.99 299.36 1819.99 334.24C1819.99 356.64 1808.47 373.92 1790.23 383.52ZM1728.79 315.04H1677.27V367.84H1728.79C1754.07 367.84 1767.83 358.88 1767.83 341.28C1767.83 323.68 1754.07 315.04 1728.79 315.04ZM1737.75 460.96C1764.63 460.96 1779.03 452.64 1779.03 433.44C1779.03 414.56 1764.63 405.6 1737.75 405.6H1677.27V460.96H1737.75ZM1936.36 325.28C1988.84 325.28 2019.24 349.6 2019.24 401.76V500H1972.52V478.56C1963.24 494.24 1945.32 502.56 1920.04 502.56C1879.72 502.56 1855.72 480.16 1855.72 450.4C1855.72 420 1877.16 398.88 1929.64 398.88H1969.32C1969.32 377.44 1956.52 364.96 1929.64 364.96C1911.4 364.96 1892.52 371.04 1880.04 380.96L1862.12 346.08C1881 332.64 1908.84 325.28 1936.36 325.28ZM1932.52 468.96C1949.16 468.96 1963.56 461.28 1969.32 445.6V428H1935.08C1911.72 428 1904.36 436.64 1904.36 448.16C1904.36 460.64 1914.92 468.96 1932.52 468.96ZM2162.02 456.48L2175.46 491.68C2165.22 499.04 2150.18 502.56 2134.82 502.56C2094.18 502.56 2070.5 481.76 2070.5 440.8V370.08H2043.94V331.68H2070.5V289.76H2120.42V331.68H2163.3V370.08H2120.42V440.16C2120.42 454.88 2128.42 462.88 2141.86 462.88C2149.22 462.88 2156.58 460.64 2162.02 456.48Z" fill="#F26755"/>
<defs>
<clipPath id="clip0_3273_9062">
<rect width="500" height="500" fill="white"/>
</clipPath>
</defs>
</svg>
